# xmcd
#
# Track frame offsets:
#	150
#	10499
#	18841
#	30674
#	44236
#	54008
#	67876
#	87319
#	99943
#	114303
#	127308
#	144550
#	157321
#	169089
#	183641
#	199237
#	213186
#	224651
#	234118
#	242766
#
# Disc length: 3401 seconds
#
# Revision: 1
# Processed by: cddbd v1.5.2PL0 Copyright (c) Steve Scherf et al.
# Submitted via: audiograbber 1.83.01
#
DISCID=1e0d4714
DTITLE=Barbara Allen - Most Requested Songs
DYEAR=1900
DGENRE=Country
TTITLE0=Pride
TTITLE1=Laugh and Dance
TTITLE2=Sweet Dreams
TTITLE3=Recall
TTITLE4=The Yodeling Song
TTITLE5=Life's Railway to Heaven
TTITLE6=Nobody's Child
TTITLE7=Between Two Trees
TTITLE8=Sonny's Dream
TTITLE9=In the Garden
TTITLE10=I'll Accept the Rose
TTITLE11=Kelly's Mountain
TTITLE12=New Country Sounds Like Rock and Roll
TTITLE13=The Prisoner's Song
TTITLE14=Crazy
TTITLE15=One Day at a Time
TTITLE16=Twenty-One Years
TTITLE17=Cape Breton Colours
TTITLE18=Walkin' After Midnight
TTITLE19=I'll Fly Away
EXTD=
EXTT0=
EXTT1=
EXTT2=
EXTT3=
EXTT4=
EXTT5=
EXTT6=
EXTT7=
EXTT8=
EXTT9=
EXTT10=
EXTT11=
EXTT12=
EXTT13=
EXTT14=
EXTT15=
EXTT16=
EXTT17=
EXTT18=
EXTT19=
PLAYORDER=
